<?xml version="1.0" standalone="no"?>
<!DOCTYPE svg PUBLIC "-//W3C//DTD SVG 20010904//EN"
 "http://www.w3.org/TR/2001/REC-SVG-20010904/DTD/svg10.dtd">
<svg version="1.0" xmlns="http://www.w3.org/2000/svg"
 width="1272.000000pt" height="1272.000000pt" viewBox="0 0 1272.000000 1272.000000"
 preserveAspectRatio="xMidYMid meet">

<g transform="translate(0.000000,1272.000000) scale(0.100000,-0.100000)"
fill="#000000" stroke="none">
<path d="M0 12705 c0 -20 512 -21 7393 -17 4724 2 5327 4 5327 17 0 13 -717
15 -6360 15 -5638 0 -6360 -2 -6360 -15z"/>
<path d="M4893 9954 c-60 -22 -126 -84 -152 -143 l-21 -51 2 -852 c3 -810 4
-855 22 -888 26 -49 74 -98 121 -123 39 -21 52 -22 500 -27 l460 -5 5 -50 c7
-59 20 -86 56 -114 26 -21 36 -21 486 -21 l460 0 34 34 c33 33 36 44 39 121
l1 30 460 5 c457 5 459 5 504 28 60 32 95 66 122 121 l23 46 0 860 0 860 -27
47 c-16 25 -45 60 -65 77 -79 65 17 61 -1557 60 -1236 0 -1437 -3 -1473 -15z
m2848 -1034 l1 -775 -1373 0 -1374 0 -3 765 c-1 421 0 771 3 778 3 10 284 12
1374 10 l1370 -3 2 -775z"/>
<path d="M5090 7508 c-62 -44 -350 -370 -350 -396 0 -5 15 -16 33 -23 27 -12
292 -14 1587 -14 1617 0 1647 1 1638 40 -7 33 -313 374 -362 404 -33 21 -37
21 -1268 21 l-1234 0 -44 -32z m190 -40 c0 -5 -13 -23 -29 -39 -26 -26 -36
-29 -90 -29 -46 0 -61 3 -61 14 0 14 40 47 70 59 24 9 110 5 110 -5z m165 2
c2 -3 -8 -20 -21 -38 -24 -30 -29 -32 -90 -32 -35 0 -64 3 -64 8 0 16 33 54
54 62 24 10 115 10 121 0z m161 -2 c3 -4 -4 -22 -16 -38 -20 -28 -26 -30 -86
-30 -74 0 -82 13 -33 54 25 21 40 26 80 25 28 -1 52 -6 55 -11z m154 2 c13 -8
13 -13 0 -37 -14 -26 -21 -28 -83 -31 -73 -3 -81 5 -49 45 24 30 100 44 132
23z m169 1 c11 -7 11 -13 0 -37 -13 -27 -18 -29 -82 -32 -44 -2 -67 1 -67 8 0
21 21 51 43 60 29 11 88 12 106 1z m140 3 c23 -5 31 -12 31 -28 0 -36 -20 -46
-87 -46 -54 0 -63 3 -63 18 0 26 21 50 50 55 14 2 28 5 31 6 4 0 21 -2 38 -5z
m339 0 c19 -5 23 -12 20 -38 l-3 -31 -65 0 -65 0 -3 32 c-3 28 0 32 25 36 47
7 67 7 91 1z m185 -14 c5 -4 7 -18 5 -31 -3 -22 -7 -24 -68 -24 -64 0 -65 0
-68 29 -2 16 2 32 10 37 14 10 108 1 121 -11z m670 -11 c31 -39 23 -49 -43
-49 -62 0 -100 21 -100 54 0 31 117 27 143 -5z m140 19 c26 -13 46 -38 47 -55
0 -14 -107 -18 -125 -5 -24 17 -46 52 -40 61 8 15 91 14 118 -1z m192 -18 c41
-38 33 -50 -33 -50 -51 0 -62 4 -85 28 -40 42 -35 49 33 47 48 -2 66 -7 85
-25z m-1333 -10 c-2 -14 -5 -26 -7 -28 -1 -1 -29 -5 -63 -8 -66 -6 -76 0 -66
41 6 25 9 26 73 23 64 -3 66 -4 63 -28z m502 14 c17 -43 8 -52 -51 -53 -68 -1
-78 5 -85 42 l-5 27 67 0 c53 0 69 -4 74 -16z m941 -105 c19 -17 35 -35 35
-40 0 -5 -30 -9 -67 -9 -59 0 -70 3 -95 27 -15 15 -28 30 -28 34 0 4 19 10 43
12 23 2 50 4 59 5 10 1 33 -12 53 -29z m-2505 14 c0 -4 -12 -20 -27 -35 -24
-25 -34 -28 -89 -28 -35 0 -65 4 -68 9 -4 5 8 21 25 35 26 22 40 26 95 26 35
0 64 -3 64 -7z m180 -2 c0 -4 -11 -20 -25 -35 -21 -23 -32 -26 -90 -26 -73 0
-84 14 -39 49 21 16 41 21 90 21 35 0 64 -4 64 -9z m180 0 c0 -4 -9 -20 -21
-35 -19 -24 -27 -26 -90 -26 -38 0 -69 4 -69 9 0 4 9 20 21 35 19 24 27 26 90
26 38 0 69 -4 69 -9z m180 0 c0 -4 -9 -20 -21 -35 -18 -23 -27 -26 -85 -26
-69 0 -77 7 -48 48 13 19 24 22 85 22 38 0 69 -4 69 -9z m170 -4 c0 -7 -7 -23
-16 -35 -13 -19 -24 -22 -80 -22 -69 0 -77 7 -48 48 13 19 24 22 80 22 45 0
64 -4 64 -13z m180 -3 c0 -42 -19 -54 -85 -54 -35 0 -66 4 -70 9 -3 5 0 21 6
35 11 24 17 26 81 26 55 0 68 -3 68 -16z m180 -7 c0 -37 -19 -47 -87 -47 -63
0 -63 0 -63 28 0 16 3 32 7 35 3 4 37 7 75 7 64 0 68 -1 68 -23z m178 -9 c4
-31 -8 -36 -88 -34 -44 1 -55 4 -58 19 -8 41 4 48 75 45 65 -3 68 -4 71 -30z
m178 8 c10 -40 -2 -47 -74 -44 l-67 3 -3 33 -3 32 70 0 c67 0 71 -1 77 -24z
m179 12 c16 -49 13 -53 -53 -56 -70 -3 -92 7 -92 44 0 23 3 24 70 24 48 0 72
-4 75 -12z m544 -17 c11 -15 18 -31 14 -35 -3 -3 -35 -6 -69 -6 -56 0 -65 3
-83 26 -12 15 -21 31 -21 35 0 5 31 9 69 9 65 0 71 -2 90 -29z m176 3 c14 -15
22 -30 19 -35 -3 -5 -32 -9 -65 -9 -52 0 -63 4 -84 26 -14 15 -25 31 -25 35 0
5 29 9 65 9 58 0 69 -3 90 -26z m-2405 -81 c0 -4 -12 -20 -27 -35 -25 -26 -32
-28 -106 -28 -88 0 -94 9 -37 48 26 17 47 22 101 22 38 0 69 -3 69 -7z m190 1
c0 -3 -9 -19 -21 -35 -20 -28 -24 -29 -100 -29 -43 0 -79 3 -79 7 0 4 12 20
27 35 25 26 33 28 100 28 40 0 73 -3 73 -6z m190 0 c0 -3 -9 -19 -21 -35 -19
-28 -24 -29 -95 -29 -81 0 -89 8 -52 47 19 20 31 23 95 23 40 0 73 -3 73 -6z
m183 0 c3 -4 0 -19 -9 -35 -14 -28 -17 -29 -94 -29 -87 0 -95 6 -55 45 20 21
33 25 88 25 35 0 66 -3 70 -6z m184 -2 c9 -6 9 -13 0 -32 -11 -23 -19 -25 -90
-28 -83 -3 -91 3 -61 46 13 19 24 22 77 22 34 0 67 -4 74 -8z m199 -6 c3 -8 1
-24 -6 -35 -9 -19 -20 -21 -90 -21 -44 0 -80 2 -80 5 0 4 7 19 15 35 15 29 18
30 86 30 51 0 71 -4 75 -14z m189 3 c4 -5 4 -21 1 -34 -5 -21 -13 -24 -68 -27
-99 -6 -107 -2 -88 46 9 24 14 26 79 26 38 0 73 -5 76 -11z m193 -26 l3 -33
-80 0 -81 0 0 28 c0 16 3 32 7 36 4 4 39 5 78 4 l70 -3 3 -32z m190 -1 l3 -33
-78 3 c-66 3 -78 6 -81 21 -8 41 4 48 80 45 l73 -3 3 -33z m192 19 c24 -45 15
-51 -70 -51 l-80 0 0 35 0 35 70 0 c58 0 71 -3 80 -19z m583 -13 c11 -15 18
-30 15 -34 -4 -3 -37 -6 -74 -7 -61 -1 -69 1 -91 27 -13 15 -21 32 -17 37 3 5
37 9 76 7 64 -3 73 -6 91 -30z m181 16 c9 -8 21 -24 26 -35 10 -18 7 -19 -68
-19 -74 0 -81 2 -96 25 -26 40 -21 45 53 45 50 0 74 -4 85 -16z m200 -5 c46
-36 35 -49 -46 -49 -60 0 -76 4 -95 22 -40 38 -30 48 46 48 54 0 74 -4 95 -21z"/>
<path d="M9895 6900 c-3 -5 -16 -10 -28 -10 -44 0 -178 -50 -234 -87 -97 -65
-125 -86 -160 -125 -56 -60 -121 -168 -144 -238 -12 -36 -26 -70 -31 -76 -4
-6 -6 -18 -2 -27 3 -8 -2 -26 -11 -40 -22 -35 -21 -349 2 -372 8 -8 12 -23 9
-32 -3 -10 1 -31 9 -47 8 -15 15 -37 15 -47 0 -10 5 -21 10 -24 6 -3 10 -17
10 -30 0 -17 6 -25 22 -27 17 -2 25 -13 33 -45 11 -47 98 -143 190 -213 55
-40 162 -94 210 -105 17 -3 50 -11 75 -17 66 -15 320 -22 333 -9 6 6 25 11 41
11 41 0 99 21 194 69 59 30 96 59 157 123 89 91 111 121 142 188 27 59 37 119
24 153 -9 22 -17 27 -45 27 -19 0 -38 5 -41 10 -3 6 -17 10 -30 10 -13 0 -27
5 -30 10 -3 6 -21 10 -40 10 -19 0 -37 5 -40 10 -3 6 -17 10 -30 10 -13 0 -26
4 -29 9 -8 13 -123 22 -151 11 -17 -6 -25 -17 -25 -32 0 -50 -100 -165 -169
-194 -43 -18 -114 -18 -149 0 -70 37 -153 156 -165 239 -3 21 -13 51 -21 68
-14 27 -14 33 -1 53 8 13 13 25 10 28 -3 3 1 20 9 39 7 19 11 39 9 46 -2 6 3
23 11 36 9 13 14 26 10 29 -7 8 58 107 87 134 41 37 70 46 143 48 l71 1 64
-68 c68 -71 91 -107 91 -138 0 -10 10 -23 22 -30 32 -17 159 1 220 32 10 5 26
9 36 9 9 0 42 9 72 20 30 11 65 20 77 20 56 0 53 104 -5 210 -38 70 -154 197
-211 233 -19 11 -47 21 -61 22 -20 0 -26 6 -28 28 -2 15 -10 28 -18 28 -27 3
-32 4 -40 12 -4 4 -16 7 -26 7 -10 0 -30 7 -43 16 -14 9 -33 14 -43 12 -10 -3
-27 1 -37 8 -23 17 -310 20 -320 4z"/>
<path d="M2723 6872 c-14 -14 -15 -40 -10 -202 l6 -185 -32 -20 c-79 -49 -72
-48 -121 -15 -25 17 -47 38 -50 48 -2 9 -8 92 -12 184 -5 123 -10 171 -20 179
-33 27 -135 -10 -249 -91 -105 -74 -177 -294 -145 -439 26 -116 41 -142 125
-226 44 -44 90 -87 102 -95 20 -14 22 -29 32 -186 6 -94 11 -203 11 -242 0
-39 4 -73 9 -76 5 -3 12 -21 15 -40 8 -40 65 -103 116 -128 36 -17 137 -38
181 -38 29 0 134 52 168 83 34 32 67 86 76 127 4 19 6 71 4 115 -2 44 -3 152
-4 240 0 157 0 160 23 171 34 17 100 82 130 129 43 67 62 134 69 245 4 58 9
98 11 89 3 -18 31 -29 70 -29 l22 0 0 -548 c0 -423 3 -552 13 -565 11 -16 35
-17 242 -15 l230 3 3 265 c1 146 5 272 8 280 3 10 21 -14 48 -65 214 -399 216
-402 244 -415 17 -7 22 -16 17 -29 -3 -11 1 -26 10 -35 14 -14 47 -16 225 -16
115 0 220 4 234 10 l26 10 0 229 c0 209 -2 231 -17 240 -15 8 -16 12 -5 22 9
10 12 129 12 526 l0 513 -233 0 c-168 0 -236 -3 -245 -12 -9 -9 -12 -84 -12
-275 0 -164 -4 -263 -10 -263 -5 0 -23 28 -40 62 -17 34 -35 67 -40 73 -5 6
-26 44 -48 85 -109 210 -164 309 -176 319 -9 8 -88 11 -252 9 l-238 -3 -8 -40
c-4 -22 -23 -87 -42 -144 -20 -58 -36 -113 -36 -122 0 -39 -18 -25 -34 26 -36
112 -131 208 -256 256 -86 34 -128 39 -147 21z"/>
<path d="M6465 6883 c-15 -3 -28 -27 -54 -101 -18 -53 -35 -108 -36 -122 -2
-14 -8 -43 -14 -65 -6 -22 -11 -56 -11 -75 0 -65 0 -65 200 -65 l180 0 3 -552
c1 -303 5 -554 9 -558 8 -9 487 -9 496 0 4 4 7 255 7 558 l0 552 90 0 c228 0
274 4 295 25 12 12 18 25 15 30 -3 5 10 54 29 110 19 56 32 108 30 115 -3 7
-1 16 5 20 6 3 11 32 11 65 l0 58 -97 5 c-124 5 -1131 6 -1158 0z"/>
<path d="M7860 6884 c-9 -3 -25 -38 -39 -87 -13 -45 -33 -109 -44 -142 -20
-62 -29 -177 -14 -192 5 -4 22 -8 38 -8 l29 0 2 -552 c2 -303 7 -555 11 -560
5 -4 276 -8 603 -8 l593 0 23 23 c22 22 23 28 23 206 0 102 -4 188 -8 192 -4
5 -171 9 -370 10 l-362 2 0 61 0 62 293 2 c245 2 295 5 303 17 11 18 8 395 -4
406 -4 5 -139 9 -300 10 l-292 2 0 63 0 64 200 -3 c110 -1 249 2 310 6 l109 7
18 50 c10 28 18 58 18 68 0 9 4 25 9 35 37 73 67 239 46 260 -7 8 -1170 13
-1195 6z"/>
<path d="M555 6860 c-7 -22 2 -105 15 -135 18 -43 130 -395 130 -410 0 -8 4
-23 9 -33 5 -9 32 -89 59 -177 28 -88 78 -245 111 -350 33 -104 75 -239 94
-300 l35 -110 281 -3 c319 -3 288 -12 317 91 8 29 46 151 85 272 67 210 115
360 248 780 93 295 103 329 99 361 l-3 29 -241 3 c-268 3 -256 6 -281 -67 -7
-20 -13 -48 -13 -63 0 -15 -5 -30 -10 -33 -5 -3 -10 -15 -10 -27 0 -11 -9 -48
-19 -82 -32 -101 -58 -194 -93 -331 -5 -22 -14 -48 -19 -57 -5 -10 -9 -25 -9
-33 0 -22 -31 -118 -41 -130 -14 -15 -31 10 -39 57 -4 24 -18 77 -30 118 -12
41 -24 86 -26 100 -3 14 -9 34 -14 45 -5 11 -11 34 -13 50 -3 17 -15 64 -27
105 -12 41 -30 103 -39 137 -9 34 -20 66 -24 69 -4 4 -7 22 -7 40 0 18 -4 36
-10 39 -5 3 -10 19 -10 36 l0 29 -249 0 c-240 0 -250 -1 -256 -20z"/>
<path d="M4876 6854 c-4 -14 -6 -155 -6 -314 1 -195 -2 -295 -9 -309 -14 -25
-11 -874 2 -888 11 -10 484 -10 494 1 5 4 9 291 11 638 2 583 1 632 -14 650
-14 14 -15 21 -6 30 8 8 12 49 12 115 l0 103 -239 0 -239 0 -6 -26z"/>
<path d="M11027 6873 c-4 -3 -7 -16 -7 -28 0 -11 -18 -75 -40 -140 -37 -110
-53 -205 -38 -220 4 -4 25 -9 47 -12 l41 -6 0 -544 c0 -356 4 -551 10 -564 10
-18 24 -19 245 -19 l235 0 0 270 0 270 135 0 135 0 0 -251 c0 -153 4 -258 10
-270 10 -18 24 -19 245 -19 l235 0 2 298 c1 163 2 333 3 377 1 44 -1 257 -4
473 l-4 392 -233 0 c-175 0 -235 -3 -241 -12 -4 -7 -10 -139 -13 -293 l-5
-280 -130 0 -130 0 -3 293 -2 292 -243 0 c-134 0 -247 -3 -250 -7z"/>
<path d="M2385 5155 c-50 -11 -100 -26 -111 -33 -29 -16 -27 -5 -119 -546 -41
-240 -41 -252 -16 -266 29 -15 216 -13 229 3 11 13 72 338 72 382 0 14 4 25
10 25 12 0 31 -28 257 -397 12 -21 21 -23 111 -23 124 0 139 5 151 44 6 17 37
189 71 381 33 193 63 362 66 376 3 17 -2 31 -15 43 -17 15 -35 17 -125 14 -57
-1 -108 -6 -112 -10 -7 -7 -22 -81 -59 -290 -10 -54 -20 -98 -24 -98 -4 0 -36
48 -71 108 -116 192 -188 299 -207 304 -11 3 -59 -5 -108 -17z m251 -270 c82
-134 152 -245 155 -245 6 0 35 145 70 348 l23 132 92 0 c83 0 92 -2 88 -17 -2
-10 -31 -175 -64 -368 -33 -192 -62 -360 -65 -372 -5 -22 -10 -23 -98 -23
l-93 0 -24 43 c-60 108 -283 457 -290 452 -4 -2 -10 -24 -13 -47 -5 -41 -63
-379 -73 -425 -4 -22 -9 -23 -94 -23 -72 0 -90 3 -90 15 0 8 18 117 40 242 22
125 49 284 61 353 12 69 25 129 30 134 10 11 181 56 190 50 4 -2 73 -114 155
-249z"/>
<path d="M4543 5169 c-134 -22 -271 -106 -348 -211 -63 -87 -89 -174 -90 -303
0 -153 38 -235 142 -305 70 -47 148 -64 293 -64 194 0 292 34 408 139 94 86
140 177 162 318 13 86 1 186 -28 243 -23 45 -93 114 -141 139 -92 47 -264 66
-398 44z m259 -40 c171 -36 270 -147 271 -303 2 -314 -243 -525 -583 -503
-214 14 -339 122 -348 302 -10 191 94 371 261 453 115 57 275 77 399 51z"/>
<path d="M4563 4970 c-50 -10 -110 -40 -142 -71 -56 -53 -97 -201 -79 -282 21
-95 80 -129 223 -129 182 0 273 71 305 239 31 158 -31 238 -192 248 -40 2 -92
0 -115 -5z m215 -64 c51 -27 67 -75 53 -155 -18 -96 -52 -155 -108 -188 -44
-26 -57 -28 -148 -28 -156 0 -195 27 -195 139 0 114 62 213 151 242 60 19 203
14 247 -10z"/>
<path d="M6420 5156 c-117 -31 -126 -37 -139 -93 -18 -80 -121 -686 -121 -714
0 -14 5 -30 12 -37 17 -17 222 -16 236 1 6 7 21 73 33 145 13 75 27 131 32
129 6 -2 33 -56 61 -121 31 -72 60 -124 73 -133 17 -12 38 -13 94 -8 l71 7 85
117 c47 64 90 120 94 125 19 21 20 -9 3 -123 -23 -155 -26 -151 116 -151 74 0
111 4 118 13 12 15 27 88 92 463 27 160 50 307 50 327 0 49 -18 57 -132 57
-114 0 -90 21 -298 -260 -83 -113 -155 -206 -159 -208 -5 -2 -16 16 -24 40
-129 363 -168 450 -201 447 -6 0 -49 -11 -96 -23z m177 -222 c126 -345 132
-358 146 -321 2 7 52 76 109 152 57 77 139 188 182 248 l79 107 94 0 c85 0 94
-2 89 -17 -3 -10 -12 -58 -20 -108 -16 -100 -104 -597 -111 -632 -5 -22 -10
-23 -95 -23 -65 0 -90 3 -90 13 0 6 13 89 30 182 41 235 41 235 37 235 -4 0
-102 -130 -236 -312 l-71 -98 -54 0 c-31 0 -58 5 -64 13 -5 6 -40 86 -77 177
-37 91 -72 175 -79 188 -11 20 -16 -2 -45 -170 -18 -106 -35 -201 -37 -210 -5
-16 -18 -18 -96 -18 l-90 0 4 33 c15 112 122 704 129 711 9 10 169 56 183 52
6 -1 43 -92 83 -202z"/>
<path d="M7990 5169 c-111 -20 -161 -42 -197 -83 -38 -45 -476 -701 -486 -729
-4 -11 1 -25 13 -37 18 -18 34 -20 130 -20 l110 0 38 57 c20 32 40 62 44 67 4
6 14 4 26 -7 16 -15 42 -17 188 -17 l169 0 15 -48 15 -47 101 -3 c56 -1 113 2
127 7 40 15 37 45 -28 251 -13 41 -51 170 -85 285 -34 116 -69 230 -77 255
-14 43 -40 81 -52 79 -3 -1 -26 -5 -51 -10z m74 -121 c16 -51 68 -225 117
-386 49 -162 89 -300 89 -308 0 -12 -17 -14 -97 -12 l-97 3 -11 45 -11 45
-177 3 c-115 2 -177 6 -177 13 0 6 20 42 45 80 l45 69 106 0 c96 0 106 2 102
18 -47 171 -84 292 -90 292 -8 0 -73 -98 -222 -335 -49 -77 -103 -161 -120
-187 l-31 -48 -92 0 c-51 0 -93 3 -93 6 0 6 457 693 484 727 11 15 146 61 192
66 6 0 23 -41 38 -91z m-146 -312 c12 -41 22 -79 22 -85 0 -7 -28 -11 -75 -11
-41 0 -75 2 -75 5 0 9 95 165 100 165 3 0 15 -34 28 -74z"/>
<path d="M11190 5164 c-105 -22 -147 -42 -184 -87 -44 -54 -466 -685 -477
-713 -5 -14 -3 -28 6 -40 11 -16 30 -19 129 -22 l116 -4 42 66 c23 36 45 66
49 66 3 0 12 -7 19 -15 10 -12 44 -15 184 -15 l171 0 15 -48 15 -47 101 -3
c56 -1 113 2 127 7 34 13 35 39 3 146 -13 44 -42 143 -64 220 -113 386 -156
507 -180 504 -4 0 -36 -7 -72 -15z m85 -81 c22 -78 172 -573 196 -647 32 -100
34 -97 -78 -94 l-98 3 -9 48 -9 47 -179 0 c-120 0 -178 3 -178 11 0 6 20 42
45 80 l45 69 106 0 c96 0 106 2 102 18 -33 123 -84 292 -90 292 -7 0 -99 -138
-238 -360 -57 -91 -112 -175 -123 -187 -18 -21 -30 -23 -110 -23 -50 0 -87 4
-85 9 2 5 111 172 243 370 264 397 235 366 370 404 73 22 72 22 90 -40z m-136
-352 c11 -36 21 -71 21 -78 0 -10 -20 -13 -75 -13 -41 0 -75 3 -75 6 0 14 96
161 101 156 4 -4 16 -36 28 -71z"/>
<path d="M1825 5136 c-14 -22 -125 -609 -142 -753 -9 -78 -2 -83 127 -83 74 0
111 4 118 13 14 17 142 736 142 798 0 39 -27 49 -140 49 -84 0 -91 -2 -105
-24z m205 -36 c0 -11 -13 -98 -30 -193 -58 -335 -81 -463 -91 -514 l-10 -53
-96 0 c-86 0 -94 2 -89 17 6 15 136 739 136 756 0 4 41 7 90 7 84 0 90 -1 90
-20z"/>
<path d="M3306 5144 c-9 -8 -16 -18 -16 -22 0 -4 -27 -160 -60 -347 -77 -436
-78 -444 -55 -461 25 -19 220 -20 232 -2 4 7 20 74 34 148 l25 135 226 3 c184
2 228 5 238 17 7 8 19 47 26 87 29 153 37 148 -226 148 -130 0 -211 4 -215 10
-3 6 -3 19 0 30 6 19 15 20 241 20 151 0 243 4 256 11 20 11 98 165 98 193 0
8 -7 22 -16 30 -13 14 -63 16 -394 16 -331 0 -381 -2 -394 -16z m764 -29 c0
-2 -17 -38 -37 -80 l-37 -75 -256 -2 -255 -3 -9 -69 c-6 -47 -5 -70 2 -75 6
-4 109 -8 229 -9 119 -2 219 -4 221 -6 2 -2 -3 -37 -10 -77 l-13 -74 -236 -3
-236 -2 -18 -103 c-9 -56 -22 -123 -27 -149 l-10 -48 -89 0 c-104 0 -98 -13
-70 140 11 58 41 225 67 373 l47 267 369 0 c202 0 368 -2 368 -5z"/>
<path d="M5342 5128 c-36 -59 -72 -142 -72 -169 0 -18 9 -33 27 -45 l27 -17
-42 -18 c-23 -10 -42 -23 -42 -28 0 -6 -18 -113 -40 -238 -46 -263 -48 -288
-21 -303 29 -15 216 -13 229 3 6 6 18 60 28 120 l17 107 97 0 96 0 44 -92 c25
-50 56 -104 68 -120 23 -28 25 -28 136 -28 115 0 156 12 156 45 0 14 -67 141
-104 197 -14 21 -15 28 -4 36 111 88 152 146 173 250 23 110 2 194 -67 259
-67 65 -83 68 -399 71 l-287 3 -20 -33z m599 -23 c87 -31 139 -107 139 -203 0
-120 -58 -221 -158 -279 -26 -15 -49 -28 -51 -29 -2 -2 29 -58 68 -125 39 -66
71 -123 71 -125 0 -2 -48 -4 -107 -4 l-108 0 -63 120 -63 120 -124 0 -123 0
-17 -97 c-9 -54 -18 -108 -21 -120 -4 -22 -9 -23 -100 -23 -84 0 -95 2 -90 16
3 9 22 107 41 218 19 111 37 216 41 233 6 29 11 32 87 52 45 12 88 21 95 21
14 0 15 -17 2 -80 -4 -25 -7 -47 -5 -49 6 -6 354 -1 370 6 29 10 55 69 55 121
0 82 1 82 -307 82 -145 0 -263 2 -263 5 0 3 16 39 35 80 l36 75 258 0 c207 0
267 -3 302 -15z m-101 -225 c0 -17 -7 -44 -15 -61 l-16 -30 -152 3 c-146 3
-152 4 -149 23 2 11 3 37 3 58 l0 37 165 0 164 0 0 -30z"/>
<path d="M8373 5152 c-19 -12 -33 -60 -40 -138 -8 -103 -8 -104 140 -104 l120
0 -7 -53 c-3 -30 -19 -128 -36 -218 -45 -247 -52 -309 -39 -325 16 -20 222
-20 238 0 12 14 47 193 92 459 l23 137 122 0 c68 0 134 4 148 9 17 7 35 32 60
84 44 94 52 123 36 142 -11 13 -72 15 -429 15 -229 0 -421 -4 -428 -8z m825
-40 c-1 -4 -18 -40 -37 -80 l-35 -72 -147 0 -147 0 -12 -72 c-7 -40 -31 -179
-54 -308 l-41 -235 -94 -3 -93 -3 5 28 c3 15 27 151 53 301 42 235 46 274 34
282 -8 6 -73 10 -144 10 l-128 0 6 26 c4 15 9 40 12 58 3 17 7 41 10 54 l4 22
406 0 c223 0 404 -4 402 -8z"/>
<path d="M9367 5143 c-10 -12 -36 -133 -76 -363 -78 -446 -79 -455 -53 -469
29 -15 204 -14 224 2 11 8 27 74 53 217 20 113 49 279 66 369 16 89 29 181 29
202 0 51 -20 59 -139 59 -71 0 -91 -3 -104 -17z m203 -42 c0 -18 -113 -684
-125 -738 -5 -22 -10 -23 -97 -23 l-91 0 6 38 c3 20 33 193 66 383 34 190 61
349 61 352 0 4 41 7 90 7 82 0 90 -2 90 -19z"/>
<path d="M10007 5149 c-92 -22 -214 -118 -274 -216 -65 -105 -88 -310 -51
-433 22 -70 84 -140 153 -172 47 -22 64 -23 309 -26 142 -2 270 -1 283 3 18 4
33 24 58 78 19 40 37 86 40 102 11 60 11 60 -279 63 l-265 3 -22 27 c-32 41
-25 156 16 236 48 95 52 96 312 96 148 0 231 4 248 12 17 8 39 38 65 91 42 83
48 115 28 135 -14 14 -560 15 -621 1z m593 -34 c0 -2 -17 -38 -37 -79 l-36
-74 -238 -4 c-267 -3 -261 -2 -326 -87 -82 -106 -86 -296 -9 -347 23 -15 59
-17 281 -18 163 -1 255 -5 254 -11 0 -5 -17 -41 -37 -80 l-37 -70 -265 0
c-264 0 -265 0 -310 25 -51 29 -104 94 -120 148 -72 239 71 529 289 588 45 12
591 20 591 9z"/>
</g>
</svg>
